<svg width="39" height="38" viewBox="0 0 39 38" fill="none" xmlns="http://www.w3.org/2000/svg">
<path d="M0 13.9651C0 2.68645 2.4532 0.269104 13.8992 0.269104H24.1183C35.5643 0.269104 38.0174 2.68645 38.0174 13.9651V24.0349C38.0174 35.3136 35.5643 37.7309 24.1183 37.7309H13.8992C2.4532 37.7309 0 35.3136 0 24.0349V13.9651Z" fill="#181818"/>
<mask id="mask0_1215_1317" style="mask-type:luminance" maskUnits="userSpaceOnUse" x="6" y="6" width="26" height="26">
<path d="M31.2589 6.72083H6.54761V31.071H31.2589V6.72083Z" fill="white"/>
</mask>
<g mask="url(#mask0_1215_1317)">
<path d="M22.5753 13.1322C22.5734 13.1304 22.5712 13.129 22.5688 13.1279C21.4706 12.4475 20.1996 12.0869 18.9023 12.0877C13.8061 12.0877 8.92474 15.6586 6.54764 19.6773C6.54764 19.6773 6.5623 16.1169 6.54764 11.8852C6.52846 6.70194 16.0074 3.10049 22.5753 13.1322Z" fill="white"/>
<path d="M13.0543 15.2776C13.0526 15.2795 13.0512 15.2817 13.0501 15.2841C12.3595 16.3662 11.9936 17.6187 11.9944 18.897C11.9944 23.9186 15.6182 28.7294 19.6965 31.0701C19.6965 31.0701 16.0833 31.0556 11.7889 31.0701C6.52876 31.0899 2.87388 21.7496 13.0543 15.2776Z" fill="white"/>
<path d="M15.2312 24.6597C15.2331 24.6614 15.2354 24.6628 15.2378 24.6639C16.3359 25.3443 17.607 25.7049 18.9042 25.7042C24.0002 25.7042 28.8818 22.1333 31.2579 18.1153C31.2579 18.1153 31.2432 21.6757 31.2579 25.9073C31.2781 31.0899 21.7992 34.6915 15.2312 24.6597Z" fill="white"/>
<path d="M24.7525 22.5143C24.7543 22.5124 24.7557 22.5102 24.7568 22.5078C25.4473 21.4257 25.8133 20.1732 25.8125 18.895C25.8125 13.8735 22.1887 9.06325 18.1111 6.72088C18.1111 6.72088 21.7243 6.7353 26.0187 6.72088C31.2781 6.70199 34.933 16.0423 24.7525 22.5143Z" fill="white"/>
<path d="M22.7168 15.1383C20.6107 13.0631 17.1961 13.0631 15.09 15.1383C12.984 17.2136 12.984 20.5783 15.09 22.6536C17.1961 24.7288 20.6107 24.7288 22.7168 22.6536C24.8228 20.5783 24.8228 17.2136 22.7168 15.1383ZM20.8384 18.0158C20.6123 18.0158 20.3914 17.9498 20.2035 17.8261C20.0155 17.7023 19.8691 17.5265 19.7826 17.3207C19.6961 17.115 19.6735 16.8886 19.7175 16.6701C19.7616 16.4517 19.8705 16.2511 20.0303 16.0936C20.1901 15.9361 20.3937 15.8288 20.6154 15.7854C20.8371 15.742 21.0668 15.7643 21.2757 15.8495C21.4845 15.9347 21.6629 16.079 21.7885 16.2642C21.9141 16.4494 21.9811 16.6671 21.9811 16.8898C21.9811 17.1884 21.8607 17.4749 21.6464 17.6861C21.4321 17.8972 21.1414 18.0158 20.8384 18.0158ZM22.3405 19.4582C22.2274 19.4582 22.117 19.4252 22.023 19.3633C21.9291 19.3015 21.8558 19.2135 21.8126 19.1106C21.7693 19.0078 21.758 18.8946 21.7801 18.7854C21.8021 18.6761 21.8565 18.5758 21.9364 18.4971C22.0163 18.4183 22.1181 18.3647 22.229 18.343C22.3398 18.3213 22.4547 18.3324 22.5591 18.375C22.6635 18.4176 22.7528 18.4898 22.8155 18.5824C22.8783 18.675 22.9118 18.7838 22.9118 18.8952C22.9119 18.9692 22.8972 19.0425 22.8685 19.1109C22.8399 19.1793 22.7978 19.2414 22.7448 19.2938C22.6917 19.3461 22.6287 19.3877 22.5593 19.416C22.4899 19.4444 22.4156 19.459 22.3405 19.459V19.4582Z" fill="white"/>
</g>
</svg>
