<svg width="276" height="38" viewBox="0 0 276 38" fill="none" xmlns="http://www.w3.org/2000/svg">
<path d="M0 13.9651C0 2.68645 2.4532 0.269104 13.8992 0.269104H24.1183C35.5643 0.269104 38.0174 2.68645 38.0174 13.9651V24.0349C38.0174 35.3136 35.5643 37.7309 24.1183 37.7309H13.8992C2.4532 37.7309 0 35.3136 0 24.0349V13.9651Z" fill="#181818"/>
<mask id="mask0_1232_655" style="mask-type:luminance" maskUnits="userSpaceOnUse" x="6" y="6" width="26" height="26">
<path d="M31.2592 6.72083H6.54785V31.071H31.2592V6.72083Z" fill="white"/>
</mask>
<g mask="url(#mask0_1232_655)">
<path d="M22.5756 13.1322C22.5737 13.1304 22.5714 13.129 22.569 13.1279C21.4708 12.4475 20.1998 12.0869 18.9026 12.0877C13.8064 12.0877 8.92499 15.6586 6.54788 19.6773C6.54788 19.6773 6.56254 16.1169 6.54788 11.8852C6.5287 6.70194 16.0076 3.10049 22.5756 13.1322Z" fill="white"/>
<path d="M13.0546 15.2776C13.0528 15.2795 13.0514 15.2817 13.0503 15.2841C12.3598 16.3662 11.9938 17.6187 11.9946 18.897C11.9946 23.9186 15.6185 28.7294 19.6968 31.0701C19.6968 31.0701 16.0836 31.0556 11.7892 31.0701C6.529 31.0899 2.87413 21.7496 13.0546 15.2776Z" fill="white"/>
<path d="M15.2314 24.6597C15.2334 24.6614 15.2356 24.6628 15.238 24.6639C16.3362 25.3443 17.6072 25.7049 18.9045 25.7042C24.0004 25.7042 28.882 22.1333 31.2581 18.1153C31.2581 18.1153 31.2435 21.6757 31.2581 25.9073C31.2783 31.0899 21.7994 34.6915 15.2314 24.6597Z" fill="white"/>
<path d="M24.7528 22.5143C24.7545 22.5124 24.756 22.5102 24.757 22.5078C25.4476 21.4257 25.8135 20.1732 25.8127 18.895C25.8127 13.8735 22.1889 9.06325 18.1113 6.72088C18.1113 6.72088 21.7245 6.7353 26.0189 6.72088C31.2784 6.70199 34.9332 16.0423 24.7528 22.5143Z" fill="white"/>
<path d="M22.717 15.1383C20.6109 13.0631 17.1964 13.0631 15.0903 15.1383C12.9842 17.2136 12.9842 20.5783 15.0903 22.6536C17.1964 24.7288 20.6109 24.7288 22.717 22.6536C24.8231 20.5783 24.8231 17.2136 22.717 15.1383ZM20.8386 18.0158C20.6126 18.0158 20.3916 17.9498 20.2037 17.8261C20.0158 17.7023 19.8693 17.5265 19.7828 17.3207C19.6963 17.115 19.6737 16.8886 19.7178 16.6701C19.7619 16.4517 19.8707 16.2511 20.0306 16.0936C20.1904 15.9361 20.394 15.8288 20.6156 15.7854C20.8373 15.742 21.0671 15.7643 21.2759 15.8495C21.4847 15.9347 21.6632 16.079 21.7888 16.2642C21.9143 16.4494 21.9813 16.6671 21.9813 16.8898C21.9813 17.1884 21.8609 17.4749 21.6466 17.6861C21.4323 17.8972 21.1416 18.0158 20.8386 18.0158ZM22.3407 19.4582C22.2277 19.4582 22.1172 19.4252 22.0233 19.3633C21.9293 19.3015 21.8561 19.2135 21.8128 19.1106C21.7696 19.0078 21.7583 18.8946 21.7803 18.7854C21.8024 18.6761 21.8568 18.5758 21.9367 18.4971C22.0166 18.4183 22.1184 18.3647 22.2293 18.343C22.3401 18.3213 22.4549 18.3324 22.5594 18.375C22.6638 18.4176 22.753 18.4898 22.8158 18.5824C22.8786 18.675 22.9121 18.7838 22.9121 18.8952C22.9122 18.9692 22.8975 19.0425 22.8688 19.1109C22.8401 19.1793 22.7981 19.2414 22.745 19.2938C22.6919 19.3461 22.6289 19.3877 22.5595 19.416C22.4902 19.4444 22.4158 19.459 22.3407 19.459V19.4582Z" fill="white"/>
</g>
<path d="M61.1898 27.3952C62.1696 27.3952 63.1342 27.2424 64.0835 26.9367C65.0481 26.6165 65.913 26.1361 66.6786 25.4957C67.4595 24.8406 68.0797 24.0255 68.539 23.0502C68.9982 22.0604 69.228 20.9032 69.228 19.5786V17.8537H61.0979V20.6922H65.6683V20.7358C65.6683 21.4927 65.4538 22.1405 65.025 22.679C64.6119 23.2176 64.0605 23.6325 63.3714 23.9236C62.698 24.2002 61.9707 24.3384 61.1898 24.3384C60.1795 24.3384 59.2837 24.1128 58.5028 23.6616C57.7372 23.2104 57.1326 22.5844 56.6886 21.7838C56.2446 20.9833 56.0226 20.0517 56.0226 18.9891C56.0226 17.9265 56.2293 17.0022 56.6425 16.2162C57.0712 15.4156 57.6684 14.7896 58.434 14.3384C59.1993 13.8872 60.0876 13.6616 61.0979 13.6616C62.1391 13.6616 63.0193 13.9236 63.7392 14.4476C64.4739 14.957 64.9867 15.6048 65.2779 16.3908L68.4241 14.9498C68.1333 14.1492 67.6432 13.4214 66.9542 12.7663C66.2652 12.1113 65.4233 11.5873 64.4282 11.1943C63.448 10.8013 62.3381 10.6048 61.0979 10.6048C59.8578 10.6048 58.7096 10.8158 57.6531 11.2379C56.612 11.6455 55.701 12.2278 54.9201 12.9847C54.1392 13.7271 53.5346 14.615 53.1058 15.6484C52.6771 16.6674 52.4629 17.7809 52.4629 18.9891C52.4629 20.1972 52.6849 21.3108 53.1289 22.3297C53.5729 23.3486 54.1928 24.2365 54.9889 24.9935C55.785 25.7504 56.7116 26.3399 57.768 26.762C58.8245 27.1842 59.9649 27.3952 61.1898 27.3952Z" fill="#181818"/>
<path d="M71.4268 27.1332H82.9325V24.1856H74.9865V20.4519H82.4732V17.5043H74.9865V13.8144H82.9325V10.8668H71.4268V27.1332Z" fill="#181818"/>
<path d="M88.0281 27.1332H91.5878V13.8144H95.8592V10.8668H83.6875V13.8144H88.0281V27.1332Z" fill="#181818"/>
<path d="M109.878 27.3952C111.118 27.3952 112.228 27.1987 113.208 26.8057C114.204 26.4127 115.045 25.8887 115.734 25.2337C116.423 24.5786 116.914 23.8508 117.204 23.0502L114.058 21.6092C113.767 22.3952 113.254 23.0502 112.519 23.5743C111.8 24.0837 110.919 24.3384 109.878 24.3384C108.868 24.3384 107.98 24.1128 107.214 23.6616C106.449 23.2104 105.851 22.5844 105.423 21.7838C105.01 20.9833 104.803 20.0517 104.803 18.9891C104.803 17.9265 105.01 17.0022 105.423 16.2162C105.851 15.4156 106.449 14.7896 107.214 14.3384C107.98 13.8872 108.868 13.6616 109.878 13.6616C110.919 13.6616 111.8 13.9236 112.519 14.4476C113.254 14.957 113.767 15.6048 114.058 16.3908L117.204 14.9498C116.914 14.1492 116.423 13.4214 115.734 12.7663C115.045 12.1113 114.204 11.5873 113.208 11.1943C112.228 10.8013 111.118 10.6048 109.878 10.6048C108.638 10.6048 107.49 10.8158 106.433 11.2379C105.392 11.6455 104.481 12.2278 103.7 12.9847C102.919 13.7271 102.315 14.615 101.886 15.6484C101.457 16.6674 101.243 17.7809 101.243 18.9891C101.243 20.1972 101.457 21.3108 101.886 22.3297C102.33 23.3486 102.943 24.2365 103.723 24.9935C104.504 25.7504 105.415 26.3399 106.456 26.762C107.513 27.1842 108.653 27.3952 109.878 27.3952Z" fill="#181818"/>
<path d="M118.226 27.1332H122.084L123.232 23.8144H129.502L130.65 27.1332H134.531L128.744 10.8668H124.013L118.226 27.1332ZM124.219 20.8668L126.378 14.6004L128.514 20.8668H124.219Z" fill="#181818"/>
<path d="M136.31 27.1332H139.869V16.4126L145.037 22.9847H145.496L150.664 16.6528V27.1332H154.223V10.8668H150.778L145.335 17.9192L139.755 10.8668H136.31V27.1332Z" fill="#181818"/>
<path d="M157.257 27.1332H168.763V24.1856H160.817V20.4519H168.304V17.5043H160.817V13.8144H168.763V10.8668H157.257V27.1332Z" fill="#181818"/>
<path d="M170.781 27.1332H174.341V21.238H176.867L180.335 27.1332H184.331L180.427 20.6484C181.331 20.2554 182.05 19.6732 182.586 18.9017C183.122 18.1157 183.389 17.1696 183.389 16.0633C183.389 14.9279 183.13 13.9745 182.609 13.203C182.088 12.4315 181.368 11.8493 180.45 11.4563C179.547 11.0633 178.506 10.8668 177.327 10.8668H170.781V27.1332ZM174.341 18.2904V13.8144H177.35C178.1 13.8144 178.697 14.0181 179.141 14.4257C179.6 14.8333 179.83 15.3791 179.83 16.0633C179.83 16.7329 179.6 17.2714 179.141 17.679C178.697 18.0866 178.1 18.2904 177.35 18.2904H174.341Z" fill="#181818"/>
<path d="M184.836 27.1332H188.694L189.842 23.8144H196.112L197.26 27.1332H201.142L195.354 10.8668H190.623L184.836 27.1332ZM190.83 20.8668L192.989 14.6004L195.125 20.8668H190.83Z" fill="#181818"/>
<path d="M215.176 27.3952C216.417 27.3952 217.526 27.1987 218.506 26.8057C219.501 26.4127 220.344 25.8887 221.033 25.2337C221.722 24.5786 222.211 23.8508 222.503 23.0502L219.356 21.6092C219.065 22.3952 218.552 23.0502 217.817 23.5743C217.098 24.0837 216.217 24.3384 215.176 24.3384C214.166 24.3384 213.278 24.1128 212.512 23.6616C211.747 23.2104 211.15 22.5844 210.721 21.7838C210.307 20.9833 210.101 20.0517 210.101 18.9891C210.101 17.9265 210.307 17.0022 210.721 16.2162C211.15 15.4156 211.747 14.7896 212.512 14.3384C213.278 13.8872 214.166 13.6616 215.176 13.6616C216.217 13.6616 217.098 13.9236 217.817 14.4476C218.552 14.957 219.065 15.6048 219.356 16.3908L222.503 14.9498C222.211 14.1492 221.722 13.4214 221.033 12.7663C220.344 12.1113 219.501 11.5873 218.506 11.1943C217.526 10.8013 216.417 10.6048 215.176 10.6048C213.936 10.6048 212.788 10.8158 211.731 11.2379C210.69 11.6455 209.779 12.2278 208.999 12.9847C208.218 13.7271 207.613 14.615 207.184 15.6484C206.755 16.6674 206.541 17.7809 206.541 18.9891C206.541 20.1972 206.755 21.3108 207.184 22.3297C207.628 23.3486 208.24 24.2365 209.021 24.9935C209.802 25.7504 210.713 26.3399 211.754 26.762C212.811 27.1842 213.951 27.3952 215.176 27.3952Z" fill="#181818"/>
<path d="M224.787 27.1332H228.347V21.238H230.873L234.341 27.1332H238.337L234.433 20.6484C235.336 20.2554 236.056 19.6732 236.592 18.9017C237.128 18.1157 237.395 17.1696 237.395 16.0633C237.395 14.9279 237.135 13.9745 236.614 13.203C236.094 12.4315 235.374 11.8493 234.456 11.4563C233.552 11.0633 232.511 10.8668 231.332 10.8668H224.787V27.1332ZM228.347 18.2904V13.8144H231.355C232.105 13.8144 232.703 14.0181 233.147 14.4257C233.606 14.8333 233.836 15.3791 233.836 16.0633C233.836 16.7329 233.606 17.2714 233.147 17.679C232.703 18.0866 232.105 18.2904 231.355 18.2904H228.347Z" fill="#181818"/>
<path d="M240.105 27.1332H251.611V24.1856H243.665V20.4519H251.152V17.5043H243.665V13.8144H251.611V10.8668H240.105V27.1332Z" fill="#181818"/>
<path d="M256.844 27.1332H260.978L263.964 16.2161L266.949 27.1332H271.084L275.562 10.8668H271.703L268.833 22.4607L265.801 10.8668H262.127L259.095 22.4607L256.225 10.8668H252.366L256.844 27.1332Z" fill="#181818"/>
</svg>
